<?xml version="1.0" encoding="UTF-8" standalone="no"?>
<svg
   xmlns:dc="http://purl.org/dc/elements/1.1/"
   xmlns:cc="http://creativecommons.org/ns#"
   xmlns:rdf="http://www.w3.org/1999/02/22-rdf-syntax-ns#"
   xmlns:svg="http://www.w3.org/2000/svg"
   xmlns="http://www.w3.org/2000/svg"
   xmlns:sodipodi="http://sodipodi.sourceforge.net/DTD/sodipodi-0.dtd"
   xmlns:inkscape="http://www.inkscape.org/namespaces/inkscape"
   width="1230"
   height="492.19"
   version="1.1"
   viewBox="0 0 1230 492.1875"
   id="svg4"
   sodipodi:docname="book-icon.svg"
   inkscape:version="0.92.4 5da689c313, 2019-01-14">
  <metadata
     id="metadata10">
    <rdf:RDF>
      <cc:Work
         rdf:about="">
        <dc:format>image/svg+xml</dc:format>
        <dc:type
           rdf:resource="http://purl.org/dc/dcmitype/StillImage" />
        <dc:title></dc:title>
      </cc:Work>
    </rdf:RDF>
  </metadata>
  <defs
     id="defs8" />
  <sodipodi:namedview
     pagecolor="#ffffff"
     bordercolor="#666666"
     borderopacity="1"
     objecttolerance="10"
     gridtolerance="10"
     guidetolerance="10"
     inkscape:pageopacity="0"
     inkscape:pageshadow="2"
     inkscape:window-width="1600"
     inkscape:window-height="850"
     id="namedview6"
     showgrid="false"
     inkscape:zoom="0.26910569"
     inkscape:cx="615"
     inkscape:cy="246.095"
     inkscape:window-x="0"
     inkscape:window-y="0"
     inkscape:window-maximized="1"
     inkscape:current-layer="svg4" />
  <path
     d="m1187.8 491.91c-0.2578-0.26248-5.1094-0.95467-10.781-1.5382-5.6719-0.58351-12.211-1.2971-14.531-1.5857-13.802-1.717-116.82-0.55463-130.93 1.4773-6.424 0.925-43.226-0.37873-50.011-1.7717-2.3203-0.47634-16.875-1.7249-32.344-2.7746s-33.82-2.3494-40.781-2.8882c-6.9609-0.53887-21.938-1.201-33.281-1.4713-38.079-0.90751-49.596-1.2865-67.5-2.2213-9.7969-0.51152-24.141-0.97996-31.875-1.041-7.7344-0.061-16.383-0.50744-19.219-0.99204-2.8359-0.48461-22.031-1.3097-42.656-1.8335-20.625-0.52383-43.406-1.1496-50.625-1.3907-7.2188-0.24105-19.664-0.59041-27.656-0.77634-16.39-0.3813-17.034-0.53845-19.527-4.7639-0.99056-1.6789-3.5282-4.2779-5.6392-5.7756s-4.2744-3.95-4.8076-5.4494c-0.53317-1.4994-1.7684-3.2859-2.745-3.9699-6.7006-4.6933-21.226-31.115-25.446-46.287l-2.2206-7.9834-17.385 1.665c-9.562 0.91572-31.672 3.1638-49.133 4.9958s-32.363 3.0946-33.116 2.8058c-0.75256-0.28879-7.8904 0.52756-15.862 1.8141-7.9715 1.2866-16.694 2.584-19.384 2.8833-50.666 5.637-156.28 20.3-226.02 31.38-12.824 2.0374-25.691 3.7059-28.594 3.7079-2.9025 2e-3 -9.0741 0.6717-13.715 1.4883-4.6406 0.81661-9.7031 1.6876-11.25 1.9356-1.5469 0.24799-5.9766 1.0306-9.8438 1.7391s-9.1909 1.5554-11.831 1.8819c-2.6396 0.32656-5.961 1.1964-7.3808 1.933-5.5268 2.8673-34.818 6.939-45.506 6.3257-7.7581-0.44517-11.273-0.21378-16.406 1.0802-3.5932 0.90569-9.4862 2.2065-13.096 2.8908-3.6094 0.68424-8.4609 1.7384-10.781 2.3426-11.734 3.07-36.621 0.25-42.741-4.82-2.3039-1.92-3.5189-92.15-1.57-116.64 0.6993-8.79 0.6119-22.95-0.1743-28.25-1.2587-8.47 2.7574-15.34 8.9713-15.34 5.5183 0 5.3263 5.4217-0.46275 13.073-2.859 3.7785-3.0689 6.251-0.80257 9.453 2.7046 3.8212 2.951 96.809 0.2521 95.141-1.2074-0.7462-1.8922 2.0654-1.8998 7.8001-0.00389 2.9227-0.44527 8.0145-0.98082 11.315-1.3182 8.1242-0.60259 10.635 3.9254 13.773 4.0699 2.8205 5.4551 2.2705 5.4856-2.1782 0.01737-2.5306 4.0817-3.903 6.7056-2.2644 2.3383 1.4603 6.9164 1.3345 12.442-0.34174 2.5312-0.76786 6.8305-1.3961 9.554-1.3961 2.7236 0 5.1955-0.39415 5.4933-0.8759 0.31399-0.50805 6.1445-0.70457 13.883-0.46795 13.826 0.42276 27.94-1.2667 52.717-6.3102 20.431-4.1588 47.845-7.7396 52.853-6.9036 3.5248 0.58836 50.035-6.2312 66.678-9.7768 4.8984-1.0435 15.867-2.5504 24.375-3.3487 22.18-2.0811 46.445-5.7027 72.188-10.774 21.437-4.2232 69.386-11.664 81.094-12.585 4.125-0.32431 12.984-1.609 19.688-2.8549 23.599-4.3863 43.216-7.0613 51.707-7.0511 4.7204 6e-3 14.213-0.60148 21.094-1.3493 6.8812-0.7478 16.097-1.6069 20.48-1.909 4.3828-0.30218 15.562-1.5802 24.844-2.84 9.2812-1.2598 22.726-2.4764 29.878-2.7033 15.038-0.47729 15.334-0.62553 13.017-6.5241-2.6213-6.6732-3.8867-7.7188-9.6602-7.9823-2.7785-0.12678-5.5546-0.64779-6.1691-1.1578-0.74885-0.6215-1.338-0.57022-1.7865 0.1555-0.49302 0.79772-5.8837 0.90842-20.474 0.42045-19.448-0.65042-30.132-0.0292-55.899 3.25-3.8672 0.49216-10.195 1.156-14.062 1.4751-3.8672 0.31917-14.203 1.5784-22.969 2.7982-8.7656 1.2198-18.68 2.4688-22.031 2.7755-3.3516 0.30668-9.8906 1.1401-14.531 1.852-4.6406 0.71192-12.234 1.7753-16.875 2.3631-7.5028 0.95027-28.281 4.0657-44.062 6.6064-3.0938 0.49808-10.055 1.5664-15.469 2.374-5.4141 0.80764-17.227 2.8856-26.25 4.6178-9.0234 1.7322-29.906 5.7427-46.406 8.9123s-36.961 7.2724-45.469 9.1174c-8.5078 1.845-18 3.7164-21.094 4.1587-3.0938 0.4423-8.5781 1.2327-12.188 1.7564-3.6094 0.52376-9.3047 1.7746-12.656 2.7797-9.6768 2.902-51.376 12.796-58.594 13.903-33.454 5.1298-45.567 6.1048-48.278 3.886-1.2906-1.056-3.5041-2.6426-4.9188-3.5258-1.6419-1.025-2.5743-2.4214-2.5781-3.8606-0.0056-2.1457 0.07911-2.1777 1.7528-0.66305 8.6532 7.831 9.7039 3.2999 3.9985-17.243-5.143-18.5-6.993-26.39-8.568-36.56-0.59923-3.8672-1.4791-8.8001-1.9553-10.962-0.47618-2.1619-0.8761-5.7479-0.88871-7.9688s-0.44268-5.858-0.95572-8.0824c-0.97928-4.246-0.31102-7.133 1.077-4.6528 0.42701 0.76303 1.65 7.0399 2.7177 13.949 2.3907 15.469 5.6376 30.87 9.3682 44.436 1.5597 5.6719 3.6862 13.584 4.7254 17.582 2.9984 11.535 3.2319 11.949 6.739 11.95 9.9583 2e-3 44.903-4.6742 56.039-7.4981 3.8672-0.98065 11.672-2.8768 17.344-4.2136 5.6719-1.3368 11.789-2.7887 13.594-3.2263 1.8047-0.43761 7.0781-1.4978 11.719-2.356 4.6406-0.8582 9.7031-1.9285 11.25-2.3783 1.5469-0.44988 7.4531-1.9087 13.125-3.2418s13.477-3.2589 17.344-4.2794c3.8672-1.0206 15.258-3.8013 25.312-6.1794 10.055-2.3781 24.609-6.2166 32.344-8.53 7.7344-2.3134 15.328-4.5326 16.875-4.9316 1.5469-0.39895 7.2422-2.068 12.656-3.7089 5.4141-1.641 12.797-3.8338 16.406-4.873 3.6094-1.0392 11.203-3.3149 16.875-5.0572 21.061-6.4696 23.719-7.1817 36.623-9.8134 7.2522-1.479 15.479-3.3077 18.281-4.0638 11.451-3.0896 41.284-11.954 49.366-14.668 10.432-3.5033 11.612-3.7711 43.854-9.9521 15.807-3.0304 23.227-2.7616 45 1.6299 6.3071 1.2722 23.329 2.1379 25.518 1.2979 1.0531-0.4041 0.48037-1.1864-2.2002-3.0055-1.9931-1.3526-4.914-3.4433-6.491-4.6461-4.2433-3.2365-11.179-6.0604-14.302-5.8224-1.5087 0.11496-3.7487-0.44312-4.9778-1.2402-7.5776-4.9144-53.061-4.5593-74.499 0.58163-25.63 6.1462-31.164 7.8258-49.06 14.891-9.2482 3.6508-2.6553 2.5959 19.625-3.1403 12.107-3.1169 28.529-7.3479 36.493-9.4023 16.569-4.2737 18.344-4.4392 19.955-1.8603 0.83363 1.3349 2.1863 1.875 4.6954 1.875 9.044 0 4.2299 1.7351-26.007 9.3734-11.859 2.9959-24.727 6.2927-28.594 7.3263-10.306 2.7544-16.28 3.3586-15.597 1.5772 0.65361-1.7033-2.1104-1.8655-6.9094-0.40543-1.8013 0.54803-5.3844 1.3642-7.9626 1.8136-7.0556 1.23-20.849 4.3262-27.188 6.1029-3.0938 0.86714-7.3125 1.9463-9.375 2.398-3.7369 0.81857-15.564 3.948-26.25 6.946-5.8616 1.6444-11.192 3.0618-32.344 8.6-17.735 4.6436-17.602 4.6067-24.375 6.7558-3.3516 1.0634-8.625 2.5663-11.719 3.3396-3.0938 0.77334-8.5781 2.2958-12.188 3.3831-3.6094 1.0874-12.891 3.3822-20.625 5.0996-14.723 3.2691-18.065 4.0646-31.875 7.5876-4.6406 1.1838-11.391 2.8304-15 3.6592-8.5971 1.9741-24.727 6.3379-42.188 11.413-7.7344 2.2483-16.383 4.7062-19.219 5.4621-15.198 4.0508-20.335 5.6533-22.031 6.8718-1.7994 1.2929-1.7805 1.3233 0.46875 0.75405 1.2891-0.32623 7.4062-1.4535 13.594-2.505 6.1875-1.0515 16.296-3.1626 22.463-4.6913 14.55-3.6067 32.916-7.6663 46.443-10.266 5.9297-1.1395 11.584-2.4923 12.565-3.0061 0.98107-0.5138 10.684-3.186 21.562-5.9383s23.365-6.0225 27.747-7.2673c4.3828-1.2447 15.984-4.4425 25.781-7.1061 23.221-6.3133 32.454-8.9228 45-12.717 29.406-8.8937 49.856-14.945 55.312-16.368 1.5469-0.40329 6.2248-1.9206 10.395-3.3717 7.8166-2.7198 14.735-2.714 8.3547 7e-3 -4.3906 1.8726-31.343 10.835-36.562 12.158-2.5781 0.6535-11.016 3.324-18.75 5.9344-15.89 5.3629-18.712 6.2149-28.594 8.6314-9.5441 2.334-22.376 5.7644-43.594 11.654-9.7969 2.7195-21.609 5.8732-26.25 7.0083-4.6406 1.1351-16.664 4.1706-26.719 6.7456s-21.023 5.2515-24.375 5.9477c-3.3516 0.69624-8.3757 1.7348-11.165 2.308-2.789 0.57315-6.7968 1.5153-8.9062 2.0937s-6.1556 1.5817-8.9916 2.2295c-2.8359 0.64782-9.1641 2.2334-14.062 3.5234-4.8984 1.29-12.914 3.05-17.812 3.9109-4.8984 0.86096-12.703 2.3916-17.344 3.4015-17.206 3.7443-29.926 4.2576-32.375 1.3065-4.649-5.61-29.174-99.03-26.652-101.55 1.4994-1.4994 2.9844 3.5972 11.982 41.122 5.3761 22.422 15.327 54.954 17.6 57.541 1.307 1.4872 12.878-1.3654 17.055-4.2045 2.1784-1.4808 7.3358-3.7317 11.461-5.002 14.087-4.3383 49.384-14.343 64.688-18.335 3.6094-0.94163 10.57-2.7828 15.469-4.0914 17.442-4.6598 39.021-10.19 46.406-11.893 4.125-0.9513 11.508-2.8001 16.406-4.1085 4.8984-1.3084 10.644-2.3849 12.769-2.3924 3.9125-0.0137 16.76-3.4597 31.294-8.3939 12.769-4.335 28.57-9.0803 42.188-12.67 6.9609-1.835 16.031-4.3618 20.156-5.6152 6.7739-2.0582 18.563-5.5969 45.938-13.789 5.1562-1.543 11.273-3.6087 13.594-4.5905 2.3203-0.98178 6.9609-2.4394 10.312-3.2392 3.3516-0.79978 7.1035-1.8831 8.3376-2.4074 2.0641-0.87695 5.615-1.7236 21.194-5.0536 34.908-7.4616 83.74-0.61133 96.551 13.544 0.93986 1.0385 2.1937 1.8882 2.7862 1.8882 0.59256 0 3.1158 1.2927 5.6071 2.8726 5.47 3.469 6.9489 2.6792 4.7086-2.5149-0.86324-2.0014-2.542-6.5921-3.7306-10.202-3.3824-10.271-7.4162-20.726-12.014-31.138-4.9208-11.144-10.466-27.858-11.366-34.26-1.2711-9.0384-15.274-25.731-27.698-33.017-24.326-14.267-61.682-19.178-111.56-14.668-18.237 1.6489-64.49 13.147-68.859 17.118-0.48984 0.44516-1.82 0.80938-2.956 0.80938s-13.602 3.8022-27.703 8.4492c-14.101 4.6471-27.325 8.8873-29.388 9.4228-4.5683 1.186-42.811 13.271-50.625 15.998-13.144 4.5871-44.508 12.091-58.125 13.906-5.9746 0.79659-18.877 3.1659-30.938 5.6812-23.372 4.8743-46.609 8.7417-61.875 10.298-4.6406 0.47308-13.711 1.6955-20.156 2.7165-12.105 1.9175-14.031 1.6597-12.263-1.6424 1.5096-2.8207 6.2412-3.8168 23.045-4.8513 19.248-1.185 30.128-2.722 63.281-8.9392 9.5391-1.7889 19.875-3.6966 22.969-4.2395 3.0938-0.54284 7.3125-1.3603 9.375-1.8165 2.0625-0.45624 5.8594-1.0842 8.4375-1.3955 5.1616-0.62325 17.297-2.9622 19.333-3.7261 0.71054-0.26661 4.8778-1.2918 9.2606-2.2781 8.8537-1.9925 33.08-8.6872 38.906-10.751 2.0625-0.73069 9.4453-3.0909 16.406-5.2448 10.423-3.2254 46.073-14.93 97.031-31.857 63.862-21.214 131.01-20.066 170.04 2.9066 16.356 9.6274 33.982 33.125 31.084 41.439-1.152 3.3048 2.141 14.675 4.2502 14.675 2.5671 0 6.6834 9.0686 17.447 38.438 8.2848 22.605 9.484 26.292 8.7809 26.995-0.85985 0.85985-4.2086-3.6212-4.2346-5.6664-0.0114-0.90235-0.38608-1.6406-0.83247-1.6406-0.45275 0-0.46517 1.7618-0.0281 3.9844 0.43093 2.1914 1.0593 5.5555 1.3963 7.4758 0.46126 2.6281 1.3831 3.9459 3.7278 5.3293 3.7979 2.2408 6.3799 7.0847 8.3402 15.647 0.81477 3.5586 2.3462 9.096 3.403 12.305 2.4949 7.5758 2.1514 9.8324-1.6853 11.073-4.0143 1.2976-4.3709 1.7903-2.9464 4.0714 0.95746 1.5331 0.97116 2.1851 0.065 3.0913-1.5881 1.5881-1.4374 8.2942 0.30146 13.416 0.79743 2.3488 1.2033 4.6694 0.90199 5.157-0.84877 1.3734 2.193 10.812 4.248 13.181 1.0107 1.1654 1.8377 2.7274 1.8377 3.4713 0 1.6943 3.2011 6.3181 7.1644 10.349 1.6667 1.695 3.1623 4.2112 3.3236 5.5917 0.2355 2.0154 0.92347 2.6378 3.4914 3.1589 6.2901 1.2765 7.7679-1.5256 2.4571-4.659-3.4992-2.0646-4.7169-4.9666-4.0347-9.6149 0.36731-2.5026-0.0436-3.1955-3.091-5.2122-5.5982-3.7047-8.0657-11.947-8.9712-29.968-0.74097-14.745-0.72148-14.772 11.54-15.722 4.2134-0.32669 11.596-1.4129 16.406-2.4139 19.535-4.0651 24.131-4.659 55.152-7.1267 17.876-1.422 55.454-2.2724 78.281-1.7716 14.953 0.3281 37.945 0.75376 51.094 0.94589 13.148 0.19213 25.594 0.77901 27.656 1.3042 2.0625 0.52519 8.1797 0.96519 13.594 0.97779 5.4141 0.0126 17.438 0.45469 26.719 0.98243 9.2812 0.52774 26.156 1.4124 37.5 1.9658 30.444 1.4854 45.958 2.3503 63.75 3.5544 9.2249 0.62427 23.242 0.83345 33.281 0.49666 9.539-0.32004 35.906-0.10587 58.594 0.47594s49.688 1.236 60 1.4537c10.312 0.21771 25.781 0.66979 34.374 1.0046 17.42 0.67876 19.329 0.30395 14.65-2.876-1.7324-1.1772-5.2309-4.613-7.7744-7.635-6.244-7.4186-8.1529-9.1741-14.145-13.007-2.8202-1.8041-6.9085-4.8957-9.085-6.8701-2.1764-1.9744-6.368-5.3491-9.3147-7.4994-2.9466-2.1502-7.6407-6.9658-10.431-10.701-6.3684-8.5246-8.0163-10.23-12.489-12.923-1.9786-1.1914-5.7243-4.0962-8.3238-6.4552-2.5994-2.359-7.5365-6.5668-10.971-9.3509-9.9363-8.054-14.22-14.157-9.9378-14.157 2.4988 0 6.2479 2.7818 17.667 13.109 4.8984 4.4301 10.776 9.3046 13.062 10.832 5.5821 3.7309 9.8157 8.1975 14.215 14.997 2.0129 3.1114 5.0311 6.4575 6.7071 7.4358 3.7623 2.1961 9.2873 6.4004 14.511 11.042 2.1799 1.937 4.3812 3.5218 4.8919 3.5218 1.6945 0 15.141 12.368 17.488 16.085 1.269 2.0102 4.4454 4.9706 7.0587 6.5785 3.5261 2.1697 5.2024 3.9761 6.501 7.0052 0.9622 2.2449 2.158 4.0817 2.6572 4.0817 2.3207 0 1.8957 3.845-0.9332 8.4424-2.9245 4.7531-2.9597 4.9458-1.8279 10.003 1.0696 4.7794 1.0138 5.3063-0.7619 7.1965-1.0538 1.1217-2.6164 3.7212-3.4724 5.7767-2.1159 5.081-15.259 7.1889-28.416 4.5575-7.0256-1.4051-3.1478-3.1641 6.9756-3.1641 5.448 0 10.722-0.43672 11.719-0.97048 2.4565-1.3147 2.2915-3.5903-0.296-4.0829-1.1601-0.22087-4.2187-0.89747-6.7969-1.5036-9.7786-2.2988-19.984-2.8399-61.286-3.249-23.394-0.23176-42.789-0.67443-43.098-0.98371-1.5711-1.5712 3.534-2.308 16.079-2.321 21.934-0.0227 13.74-2.5142-11.071-3.3663-5.1562-0.17709-27.726-0.96244-50.156-1.7452-22.43-0.78279-61.453-1.6832-86.719-2.0008-25.266-0.31768-46.302-0.92319-46.746-1.3456-2.4178-2.2954 1.1578-2.7246 19.36-2.3238 10.422 0.2295 33.504 0.63792 51.293 0.9076 76.416 1.1585 130.36 3.8151 201.03 9.8995l21.494 1.8507 2.1027-1.9753c2.1322-2.0031 2.9562-3.7671 5.1087-10.935 1.9333-6.4381 1.6979-6.4683-57.23-7.3324-26.039-0.38185-52.195-0.79869-58.125-0.9263-5.9297-0.12761-27.867-0.47078-48.75-0.76259-20.883-0.29182-43.242-0.95471-49.688-1.4731-6.4453-0.5184-16.781-1.3594-22.969-1.8689-15.449-1.2721-59.151-3.091-80.156-3.3362-9.5391-0.11134-22.617-0.67175-29.062-1.2454-27.636-2.4595-135.9-2.8821-161.25-0.62944-7.9922 0.71013-18.328 1.5448-22.969 1.8548-7.8396 0.52368-12.424 1.2456-30.229 4.7602-3.7353 0.73732-9.747 1.6153-13.359 1.951-6.6746 0.62033-6.9308 0.81615-6.5807 5.0287 0.44237 5.3228 3.1502 5.4709 42.2 2.3066 33.591-2.7219 72.39-2.7264 48.516-6e-3 -9.9469 1.1335-75.302 6.137-80.343 6.1509-7.5759 0.0209-9.4229 2.3868-9.4229 12.07 0 21.071 22.733 41.024 48.281 42.379 8.25 0.43732 20.695 1.2395 27.656 1.7826 6.9609 0.54312 31.852 1.3972 55.312 1.8979 23.461 0.50071 46.875 1.375 52.031 1.9427 5.6533 0.62253 17.493 0.82684 29.825 0.51467 11.247-0.28472 25.129-0.10708 30.847 0.39476 5.7187 0.50183 19.509 1.1018 30.644 1.3333 11.135 0.23148 28.051 0.84474 37.59 1.3628 9.5391 0.51805 26.836 0.9648 38.438 0.99278 11.602 0.0279 25.312 0.47082 30.469 0.9841 8.639 0.85997 67.32 3.1325 75.938 2.9408 29.275-0.65125 79.766-0.24811 84.63 0.67573 10.057 1.9102 49.21 1.3176 52.631-0.79666 0.792-0.48952 0.3948-1.7766-1.3893-4.5017l-2.4985-3.8161-10.905-0.67449c-11.312-0.69969-15.641-1.6509-14.67-3.2233 0.3524-0.57021 4.9348-0.69626 12.104-0.33293 14.01 0.71006 14.432 0.31957 7.1518-6.6242l-5.5615-5.3047-7.7772 0.51747c-4.2775 0.28462-10.836 0.73557-14.574 1.0021-5.4441 0.38817-6.7969 0.22231-6.7969-0.83329 0-1.5118 5.3316-2.45 14.896-2.6212 10.963-0.19621 11.867-0.63716 11.556-5.6359-0.4687-7.5331 3.5957-8.6332 5.465-1.4792 0.5669 2.1696 3.1096 6.9935 5.6505 10.72 2.5408 3.7262 4.6197 7.4079 4.6197 8.1815 0 0.77362 1.012 2.0697 2.249 2.8802 1.2369 0.81046 2.7627 2.7141 3.3907 4.2302 0.6281 1.5162 2.7801 4.2367 4.7823 6.0456 2.0023 1.8089 3.6405 3.6695 3.6405 4.1347 0 0.46515 1.4766 3.0399 3.2813 5.7216 1.8046 2.6818 3.2812 5.2406 3.2812 5.6862 0 2.3657-12.331 4.8346-22.5 4.5051-3.8672-0.12533-9.7734 0.10741-13.125 0.51717s-6.3047 0.53027-6.5625 0.26778zm-132.29-10.654c17.888-0.96186 13.062-2.5479-10.017-3.2918-10.675-0.34409-21.94-1.0717-25.034-1.6169-7.848-1.383-69.844-2.5176-69.844-1.2782 0 0.54152 3.7461 1.1685 8.6719 1.4514 4.7695 0.27392 13.523 1.1887 19.453 2.0328 16.77 2.3873 56.574 3.7887 76.769 2.7028zm160.42-0.2302c4.6466-1.3052-0.4594-2.5868-7.2828-1.8279-3.471 0.38602-7.1547 0.78981-8.1859 0.89729-2.1577 0.22489 6.1029 1.4546 10.312 1.5351 1.5468 0.0296 3.8671-0.24242 5.1562-0.60451zm-282.58-6.8891c0.72001-0.71932-0.26291-0.82119-10.859-1.1254-3.3516-0.0962-10.102-0.69816-15-1.3376-5.4842-0.71595-12.508-0.92552-18.281-0.54542-5.8075 0.38239-12.943 0.16561-18.75-0.56966-5.3581-0.67837-21.024-1.2416-36.562-1.3144-16.158-0.0758-31.371-0.63781-37.5-1.3854-11.256-1.373-44.596-1.7055-48.311-0.48181l-2.3144 0.76242 2.3438 0.67864c1.2891 0.37326 7.2866 0.72071 13.328 0.7721 6.0412 0.0514 18.276 0.4933 27.188 0.98201 57.131 3.1329 143.03 5.2488 144.72 3.5646zm-244.26-7.26c-0.77344-0.49984-3.5156-0.93362-6.0938-0.96398-2.5781-0.0304-6.5859-0.4507-8.9062-0.9341-2.3203-0.48341-8.6416-1.3267-14.047-1.8739-12.802-1.296-25.654-4.1346-29.51-6.518-3.6737-2.2705-9.8802-2.5927-9.8802-0.51289 0 3.2045 10.042 6.3993 25.312 8.0528 4.3828 0.47457 11.977 1.4478 16.875 2.1626 10.645 1.5536 28.358 1.95 26.25 0.58747zm-623.44-10.74c6.9609-0.80402 16.494-1.9038 21.184-2.4439 4.6902-0.54014 10.676-1.5488 13.301-2.2414 3.0566-0.80632 7.577-1.0911 12.566-0.79157 24.141 1.4492 76.355-8.6562 57.469-11.123-8.1405-1.0631-38.948 3.4198-43.358 6.309-1.2978 0.85033-3.1651 1.2632-4.3054 0.95186-1.8999-0.5187-10.233 0.45552-32.107 3.7534-5.2074 0.78513-14.911 1.7922-21.562 2.2378-10.504 0.70371-17.802 1.9473-20.313 3.4613-1.4358 0.86576 0.50707 2.3176 2.4613 1.8392 1.1039-0.27024 7.7024-1.1492 14.663-1.9532zm138.75-17.526c20.057-0.83833 22.347-1.1344 46.586-6.0225 14.021-2.8275 31.107-5.7354 37.969-6.4621 16.32-1.7283 29.003-3.2909 30.758-3.7894 0.77344-0.21971 7.9453-1.0488 15.938-1.8424 18.526-1.8396 26.25-3.2835 26.25-4.9071 0-1.7024-22.329-0.8889-31.406 1.1442-6.0919 1.3644-13.901 2.5736-41.719 6.4598-19.702 2.7524-23.851 3.2694-30.938 3.8546-3.8672 0.31937-14.414 1.998-23.438 3.7303-9.0234 1.7323-23.578 3.8304-32.344 4.6624-17.799 1.6894-25.127 3.0251-24.263 4.4224 0.32097 0.51934 1.6705 0.64438 3.0447 0.2821 1.3575-0.35788 11.96-1.0474 23.562-1.5324zm201.59-27.099c11.348-1.401 24.725-4.6451 23.637-5.7326-1.4577-1.4577-27.001-1.1161-35.849 0.47947-4.3828 0.7903-10.711 1.6919-14.062 2.0036-8.1228 0.75533-16.875 2.5634-16.875 3.4862 0 1.093 33.884 0.90719 43.15-0.23662zm106.84-9.32c0-0.51563-1.7124-0.9375-3.8053-0.9375-2.2982 0-3.5758 0.37132-3.2259 0.9375 0.31867 0.51562 2.0311 0.9375 3.8053 0.9375 1.7743 0 3.2259-0.42188 3.2259-0.9375zm-47.382-1.469c14.984-0.27053 25.013-1.2916 40.35-4.1083 2.5781-0.47346 9.75-1.5335 15.938-2.3556 15.629-2.0766 24.129-3.4158 25.781-4.0617 2.9071-1.1367-4.4228-1.3124-13.125-0.31464-15.113 1.7329-42.341 3.6473-48.75 3.4278-3.3516-0.11478-9.4688 0.32981-13.594 0.98797-4.125 0.65816-11.297 1.6652-15.938 2.2378-12.346 1.5234-19.489 3.1863-19.977 4.6505-0.35229 1.0569 0.73562 1.1589 6.0238 0.56501 3.5495-0.39865 14.03-0.86161 23.291-1.0288zm-173.93-5.52c5.0886-1.3278 21.607-4.7268 30.062-6.1857 2.3203-0.40039 7.5938-1.4021 11.719-2.226 10.802-2.1575 17.102-3.3308 22.969-4.2778 18.508-2.9875 24.492-3.9622 29.062-4.7336 2.8359-0.47872 10.008-1.5121 15.938-2.2964 5.9297-0.78428 13.734-1.8509 17.344-2.3702 3.6094-0.51931 9.9375-1.3616 14.062-1.8716 4.125-0.5101 12.141-1.5595 17.812-2.3321 14.916-2.0316 58.834-6.6753 93.324-9.8675 16.067-1.4871 32.508-1.2156 33.498 0.55328 0.95379 1.7044 7.8044 3.4987 8.957 2.3461 1.2449-1.2449-1.4106-4.6155-4.9654-6.3024-4.0869-1.9394-48.183-1.2001-65.658 1.1008-5.9297 0.78077-24.07 2.8873-40.312 4.6813-16.242 1.7939-33.75 3.9164-38.906 4.7166-5.1562 0.80019-13.383 2.0176-18.281 2.7053-11.968 1.6802-36.534 5.9078-44.062 7.5827-3.3516 0.74558-12.844 2.6681-21.094 4.2722s-16.898 3.3223-19.219 3.8181c-2.3203 0.49583-6.3281 1.303-8.9062 1.7938-2.5781 0.49073-7.8516 1.5504-11.719 2.3549-3.8672 0.80447-9.3516 1.815-12.188 2.2457-6.5466 0.99414-17.07 3.7913-18.234 4.8468-1.3723 1.244 2.95 0.97179 8.7979-0.55417zm280.58-7.6723c6.4659-0.3729 11.595-0.18959 14.391 0.51429 3.3531 0.84432 4.6536 0.83641 5.7032-0.0347 3.8712-3.2128-8.4621-6.351-18.422-4.6874-3.3516 0.5598-7.3594 1.218-8.9062 1.4628-13.019 2.0597-19.198 4.7282-8.9062 3.8465 3.3516-0.28712 10.615-0.78279 16.141-1.1015zm-201.77-13.97c3.8672-0.82513 9.3516-1.8416 12.188-2.2589 2.8359-0.41724 11.484-1.8823 19.219-3.2557 7.7344-1.3734 18.07-3.1066 22.969-3.8515 4.8984-0.74489 9.8067-1.5677 10.907-1.8285 5.8804-1.3934 47.933-7.139 61.28-8.3728 25.636-2.3696 30.541-2.6282 52.5-2.7675 24.141-0.15316 26.576-1.0301 14.062-5.0623-10.303-3.3198-32.075-3.0901-60.938 0.64295-25.886 3.3481-37.297 5.1731-53.438 8.5469-10.055 2.1017-22.5 4.6439-27.656 5.6494-9.9732 1.9448-21.791 4.6002-33.281 7.4779-3.8672 0.96853-10.485 1.9844-14.707 2.2576-4.2216 0.27313-8.8622 0.97401-10.312 1.5575-5.2693 2.12-6.4119 2.5749-7.7932 3.1026-2.5226 0.96373 7.7942-0.30026 15-1.8378zm112.5-29.472c2.8731-0.72888 20.891-3.4788 33.984-5.1868 5.0577-0.65975 6.0083-2.2985 1.4062-2.4243-10.31-0.28188-15.713 0.47218-34.453 4.8082-4.3828 1.0141-9.0445 1.8424-10.359 1.8407-2.2364-3e-3 -4.6406 1.4762-4.6406 2.855 0 0.6486 8.6165-0.51114 14.062-1.8928zm102.19 1.49c0-1.2587-2.7558-3.4772-7.4276-5.9794-2.451-1.3128-9.4474-1.3061-9.4474 9e-3 0 0.44113 1.582 1.4291 3.5156 2.1954 1.9336 0.76636 4.9922 2.2117 6.7969 3.2119 3.8715 2.1456 6.5625 2.3765 6.5625 0.56313zm557.99 105.62c-4.5328-0.5584-3.1892-2.4887 2.2412-3.2198 14.28-1.9225 22.347 0.31384 9.6919 2.6866-6.1906 1.1607-6.6669 1.182-11.933 0.53321zm-1123.3-3.85c0-0.42478-0.6124-4.5381-1.3609-9.1406-2.0276-12.468-4.6838-53.321-5.4814-84.306-0.46481-18.056 3.9228-43.37 6.249-36.053 1.2263 3.8572 2.3008 35.853 1.8405 54.803-0.38082 15.678-0.1108 26.608 0.9895 40.053 2.1656 26.461 2.0741 35.416-0.36176 35.416-1.0312 0-1.875-0.34753-1.875-0.77229zm1048.1-0.0811c0-2.2875 39.871-2.5994 43.594-0.34103 1.5038 0.91222-2.6252 1.143-20.859 1.1659-13.057 0.0164-22.734-0.33471-22.734-0.82483zm-96.55-2.48c-29.648-1.1772-59.049-2.1734-65.335-2.2137-7.5909-0.0487-11.655-0.43886-12.102-1.1616-0.5078-0.82162 5.0481-0.92362 22.679-0.41637 12.843 0.36952 29.68 0.85359 37.414 1.0757 7.7344 0.22213 17.016 0.62634 20.625 0.89826 3.6094 0.27192 15.883 0.67489 27.276 0.89547 20.788 0.4025 26.124 0.92953 25.162 2.4852-0.2848 0.46062-0.8092 0.77898-1.1654 0.70747-0.3564-0.0715-24.906-1.0932-54.554-2.2703zm-934.15-6.79c-0.273-0.88-0.934-7.5-1.47-14.72-0.535-7.22-1.384-15.44-1.886-18.28-1.2857-7.2628-5.3873-40.239-6.1218-49.219-0.33739-4.125-1.206-9.3077-1.9302-11.517-1.5452-4.7142-1.6703-13.954-0.31358-23.17 0.53131-3.6094 1.0815-8.3902 1.2227-10.624 0.33347-5.2764 2.439-6.9078 5.7708-4.4715 2.1566 1.5769 3.1388 17.815 1.5074 24.921-1.104 4.8083-0.03205 29.148 2.2097 50.175 4.6278 43.408 5.101 70.038 1.0112 56.905zm609.78-7.59c0-1.8279 6.4159-2.6165 11.095-1.3637 1.6347 0.43769 1.872 0.78675 0.9375 1.3791-1.673 1.0605-12.032 1.0472-12.032-0.0154zm93.984-0.77138c-9.0594-0.18606-15.234-0.68345-15.234-1.2271 0-1.2552 41.88-1.2324 42.656 0.0232 0.34877 0.56432-0.8887 0.9375-3.1087 0.9375-2.0285 0-4.901 0.13034-6.3835 0.28964-1.4824 0.1593-9.5508 0.14885-17.93-0.0233zm-76.179-3.0928c-0.80199-1.4985-0.69992-2.0082 0.49382-2.4663 2.3402-0.89803 27.919 0.94507 28.277 2.0376 0.21344 0.65021-2.9359 0.72261-9.6837 0.22259-8.3452-0.61839-10.259-0.50636-11.567 0.67703-2.2623 2.0473-6.3084 1.794-7.5205-0.47087zm349.45 1.0387c-14.19-1.2441-6.4148-2.435 17.592-2.6946 24.831-0.26846 28.994 9.4e-4 28.381 1.8392-0.3878 1.1633-35.096 1.809-45.973 0.85538zm-172.02-0.77806c-8.1822-0.98165-2.1758-3.1894 10.248-3.7668 16.671-0.77489 21.379 1.9463 5.2206 3.0172-5.2852 0.35026-10.242 0.74447-11.016 0.87601-0.77344 0.13155-2.7773 0.0746-4.4531-0.12637zm35.486-0.21341c-2.4362-0.29664-4.5325-1.155-5.1231-2.0978-1.3072-2.0868-0.11394-3.2297 1.7537-1.6797 1.1889 0.98667 15.517 2.4556 26.946 2.7626 0.90234 0.0243 1.6406 0.45695 1.6406 0.9616 0 0.94987-17.549 0.98695-25.217 0.0533zm-139.78-1.6389c-12.417-0.5499-10.844-1.8848 2.9548-2.5082 21.695-0.98024 66.919-0.15917 67.777 1.2305 0.25406 0.41107-8.4915 0.82706-19.435 0.92441-10.943 0.0974-21.373 0.21325-23.178 0.25756-1.8047 0.0443-5.1797-0.0688-7.5-0.25137-2.3203-0.18256-6.1172-0.0998-8.4375 0.18393-2.3203 0.28372-7.8023 0.35715-12.182 0.16318zm197.81-9e-3c-9.2556-0.34308-11.459-0.84758-9.3618-2.1436 2.6932-1.6645 38.424 0.12617 38.424 1.9256 0 0.84909-10.011 0.92418-29.062 0.218zm-41.116-2.0326c-2.5645-1.6249 0.90815-2.1207 10.227-1.46 5.1515 0.36522 9.5932 1.0309 9.8703 1.4793 0.65393 1.0581-18.426 1.0397-20.097-0.0194zm-13.7-1.04c0.31867-0.51563 2.8499-0.9375 5.625-0.9375s5.3063 0.42187 5.625 0.9375c0.36397 0.58893-1.7275 0.9375-5.625 0.9375s-5.989-0.34857-5.625-0.9375zm-88.905-9.0218c-0.0866-0.0636-15.492-0.33753-34.235-0.60877-22.921-0.33171-34.415-0.83097-35.109-1.525-0.75082-0.75082-0.53394-1.041 0.79626-1.0653 18.831-0.34418 102.81 0.89981 103.47 1.5327 1.3104 1.2605-33.227 2.9086-34.921 1.6664zm42.499-0.25517c-4.8305-0.87252-1.0076-2.1563 4.0248-1.3516 3.1843 0.50919 2.9255 2.3945-0.27479 2.0018-0.25781-0.0316-1.9453-0.32422-3.75-0.65021zm-159.38-2.07c-38.284-1.0312-50.745-1.7593-50.026-2.9227 0.80803-1.3074 76.279 0.20478 88.464 1.7725 3.3429 0.43011 3.8295 0.69986 2.3438 1.2993-2.1427 0.86447-3.3114 0.8602-40.781-0.14909zm-607.65-1.32c-0.72096-1.1022-1.301-4.2471-6.4822-35.146-1.0205-6.0856-4.7253-31.307-6.9948-47.618-0.88192-6.3386-1.3746-11.754-1.0947-12.033 2.422-2.422 7.7485 25.647 10.888 57.374 1.0239 10.349 2.5452 21.822 3.3807 25.495 1.4409 6.3351 1.635 13.964 0.30354 11.929zm709.95-6.93c-1.0377-0.65968-0.94433-0.92748 0.46875-1.3447 2.9427-0.86883 51.921-0.46909 51.921 0.42375 0 0.45635-2.2148 0.82612-4.9219 0.8217-2.707-5e-3 -14.203 0.20145-25.547 0.45748-11.344 0.25602-21.208 0.0948-21.921-0.35824zm76.53 0.11993c-5.0273-0.15347-9.1406-0.63607-9.1406-1.0724 0-1.953 39.921-2.7283 43.443-0.84375 4.4728 2.3938-3.7005 2.8504-34.302 1.9162zm-232.72-27.38c-0.28263-0.45731-0.0932-1.0915 0.42102-1.4093 0.5142-0.31779 2.2903-3.3012 3.9469-6.6299 2.7718-5.5693 6.3303-10.493 12.84-17.766 1.3846-1.5469 3.4285-4.2963 4.542-6.1097 1.1135-1.8135 3.1486-4.3447 4.5224-5.625s5.4388-6.2318 9.0334-11.003c3.5945-4.7716 7.3258-9.0986 8.2919-9.6156 0.96602-0.517 3.774-3.5739 6.24-6.7932 2.466-3.2192 6.1157-7.5406 8.1104-9.6032 1.9947-2.0625 4.7457-5.2208 6.1132-7.0183 1.3676-1.7976 3.7521-4.5607 5.299-6.1403s8.0788-8.5463 14.515-15.482c12.822-13.816 30.689-31.119 33.915-32.846 1.126-0.60261 3.1315-2.4132 4.4568-4.0236 1.3252-1.6104 4.3594-5.0373 6.7427-7.6154 10.22-11.056 22.528-25.346 28.261-32.812 4.4797-5.8341 11.873-13.702 17.855-19.002 1.9025-1.6854 4.5771-5.2714 5.9435-7.9688s4.7055-7.126 7.4201-9.8413 6.8992-7.9888 9.299-11.719c20.897-32.48 27.649-41.9 33.983-47.409 2.9817-2.5937 7.7415-7.991 10.577-11.994 6.9856-9.8604 16.108-19.367 21.151-22.043 4.3974-2.3328 5.443-4.9589 2.3636-5.9362-0.98873-0.31381-2.9192-1.4527-4.2899-2.531-3.2282-2.5393-15.544-8.797-18.937-9.6221-1.4474-0.35195-5.3739-2.0461-8.7254-3.7647-6.093-3.1244-20.537-8.9581-26.414-10.668-1.7144-0.49883-6.703-2.2458-11.086-3.8821-4.3828-1.6363-11.01-3.9748-14.727-5.1966-8.3994-2.761-10.174-3.687-14.536-7.5874-4.1629-3.7219-10.921-7.2707-16.69-8.7646-7.1405-1.8489-7.4843-2.0029-7.4843-3.3507 0-2.0516 3.1808-3.2514 8.6102-3.2476 5.5476 0.0039011 6.9474 0.69694 17.528 8.6784 7.0355 5.307 8.7028 6.085 22.368 10.436 4.2488 1.3529 9.9442 3.4713 12.656 4.7074 2.7121 1.2361 6.8295 2.8854 9.1498 3.665 2.3203 0.77961 7.8047 2.9622 12.188 4.8502 4.3828 1.888 10.247 4.2421 13.031 5.2313 2.7842 0.98917 7.6358 3.2337 10.781 4.9878 3.1455 1.7541 9.1417 4.5057 13.325 6.1146 9.3676 3.6028 11.134 5.3266 10.357 10.11-0.58465 3.6028-1.8656 5.0009-8.5882 9.3731-5.9768 3.8872-16.74 15.793-24.831 27.468-4.1098 5.9297-8.8635 12.258-10.564 14.062-7.0334 7.465-15.838 19.084-24.136 31.849-6.6955 10.301-14.429 20.92-21.994 30.201-3.0735 3.7707-8.7344 10.782-12.58 15.581-3.8454 4.7986-7.9533 9.2286-9.1286 9.8443-1.1753 0.6158-3.53 3.0557-5.2326 5.4221-5.9598 8.2828-42.222 46.213-82.374 86.164-6.4782 6.4457-13.225 13.618-14.993 15.938-1.7678 2.3203-4.6382 5.6953-6.3786 7.5s-4.6911 5.1797-6.5572 7.5c-1.866 2.3203-6.0899 7.1719-9.3864 10.781-3.2965 3.6094-8.123 9.7266-10.726 13.594-2.6026 3.8672-6.4117 9.0362-8.4647 11.487-2.053 2.4505-5.6696 7.6873-8.037 11.637-3.9953 6.6661-7.7014 9.9014-8.9773 7.837zm415.43-81.3c-0.3208-0.32087-11.661-0.91973-25.2-1.3308-13.539-0.41105-29.468-1.2317-35.398-1.8237-5.9297-0.59198-15.422-1.1979-21.094-1.3465-5.6719-0.1486-13.688-0.74107-17.812-1.3166-18.547-2.5878-60.045-5.7933-80.625-6.2279-10.312-0.21781-24.867-0.66361-32.344-0.99066-38.615-1.6892-73.909-1.1798-105.22 1.5187-10.258 0.88397-13.254 0.575-12.628-1.3023 0.64785-1.9435 3.1161-2.1599 55.51-4.8663 10.001-0.51658 48.672-0.50736 85.312 0.0203 22.887 0.32963 59.763 2.46 65.786 3.8005 2.8559 0.6357 17.739 2.1899 35.933 3.7524 8.5078 0.73065 20.109 1.7396 25.781 2.2421 17.315 1.5341 28.342 1.914 72.068 2.4832 41.737 0.54333 46.946 0.9613 46.36 3.7204-0.3123 1.4714-55.003 3.0873-56.423 1.6671zm-475.6-6.1452c-5.3252-8.4785-13.433-26.968-11.814-26.942 0.91517 0.0147 4.9397 6.1782 4.9397 7.565 0 0.57222 0.59438 2.1602 1.3208 3.5288 4.8579 9.1521 9.2878 21.793 5.5538 15.848zm3.8834-41.053c-1.7722-2.8675 12.359-20.932 33.706-43.087 4.2229-4.3828 8.6201-9.6051 9.7715-11.605 3.3717-5.8566 7.8477-10.847 29.846-33.279 11.44-11.665 22.381-23.319 24.314-25.897 1.9323-2.5781 5.8612-7.5141 8.731-10.969 7.7144-9.2871 11.288-14.152 21.322-29.024 4.989-7.3946 10.789-15.926 12.889-18.958 2.1002-3.0323 4.4269-6.4073 5.1705-7.5 0.74357-1.0927 4.9623-6.7925 9.375-12.666 10.84-14.365 19.14-26.476 23.22-33.842 4.54-8.176 7.61-12.188 9.35-12.188 3.2494 0-0.56014 9.3026-6.5737 16.053-2.1236 2.3836-5.0451 6.1805-6.4924 8.4375-1.4472 2.257-3.7676 5.6349-5.1562 7.5064-1.3887 1.8715-5.0562 6.9316-8.1499 11.245-5.2197 7.2768-7.645 11.047-21.033 32.696-14.738 23.833-32.061 46.086-52.912 67.969-7.8606 8.25-16.165 17.109-18.455 19.688-2.2896 2.5781-10.491 11.466-18.225 19.75-16.867 18.067-29.316 32.267-31.875 36.357-8.5973 13.744-16.924 22.315-18.773 19.323z"
     id="path2" />
</svg>
