<?xml version="1.0" encoding="UTF-8" standalone="no"?>
<!-- Created with Inkscape (http://www.inkscape.org/) -->

<svg
   xmlns:dc="http://purl.org/dc/elements/1.1/"
   xmlns:cc="http://creativecommons.org/ns#"
   xmlns:rdf="http://www.w3.org/1999/02/22-rdf-syntax-ns#"
   xmlns:svg="http://www.w3.org/2000/svg"
   xmlns="http://www.w3.org/2000/svg"
   xmlns:sodipodi="http://sodipodi.sourceforge.net/DTD/sodipodi-0.dtd"
   xmlns:inkscape="http://www.inkscape.org/namespaces/inkscape"
   width="117.90601mm"
   height="74.677055mm"
   viewBox="0 0 117.90601 74.677055"
   version="1.1"
   id="svg63"
   inkscape:version="0.92.4 5da689c313, 2019-01-14"
   sodipodi:docname="construction-icon.svg">
  <defs
     id="defs57" />
  <sodipodi:namedview
     id="base"
     pagecolor="#ffffff"
     bordercolor="#666666"
     borderopacity="1.0"
     inkscape:pageopacity="0.0"
     inkscape:pageshadow="2"
     inkscape:zoom="0.35"
     inkscape:cx="-390.63758"
     inkscape:cy="444.95665"
     inkscape:document-units="mm"
     inkscape:current-layer="layer1"
     showgrid="false"
     inkscape:showpageshadow="false"
     fit-margin-top="0"
     fit-margin-left="0"
     fit-margin-right="0"
     fit-margin-bottom="0"
     inkscape:window-width="1600"
     inkscape:window-height="850"
     inkscape:window-x="0"
     inkscape:window-y="0"
     inkscape:window-maximized="1" />
  <metadata
     id="metadata60">
    <rdf:RDF>
      <cc:Work
         rdf:about="">
        <dc:format>image/svg+xml</dc:format>
        <dc:type
           rdf:resource="http://purl.org/dc/dcmitype/StillImage" />
        <dc:title></dc:title>
      </cc:Work>
    </rdf:RDF>
  </metadata>
  <g
     inkscape:label="Layer 1"
     inkscape:groupmode="layer"
     id="layer1"
     transform="translate(-14.544768,-32.597923)">
    <g
       transform="matrix(0.26458333,0,0,0.26458333,5.9206409,-5.420047)"
       id="g42">
      <path
         style="fill:#000000;stroke:none"
         id="body"
         d="m 349.31115,339.59299 -7.77,10.502 -58.28,-35.053 V 189.19297 l -27.851,-19.497 -83.55502,16.711 -18.389,50.569 -8.663,-5.21 -4.785,7.957 10.214,6.144 -0.66,1.814 16.711,11.141 1.269,-2.538 4.294,2.583 -27.845,167.06602 h 55.704 l -27.852,-27.853 27.852,-97.48 27.85202,41.777 v 83.556 h 55.703 l -27.851,-27.853 v -55.703 l -22.439,-46.74901 28.009,16.84701 v 2.051 l 22.281,13.926 v -2.576 l 52.734,31.717 -8.171,11.045 39.391,23.873 21.48602,-28.647 z M 194.13613,203.11897 h 29.94002 l -45.75602,48.807 -6.603,-3.972 z m 31.52302,77.279 -3.672,-7.649 38.992,-41.778 v 70.67102 z"
         inkscape:connector-curvature="0" />
      <polygon
         style="fill:#000000;stroke:none"
         id="mud_1"
         points="82.729,384.156 32.595,425.934 130.077,425.934 "
         transform="translate(1.2687621e-4,-5.111621e-5)" />
      <polygon
         style="fill:#000000;stroke:none"
         id="mud_2"
         points="416.95,336.807 352.891,425.934 478.224,425.934 "
         transform="translate(1.2687621e-4,-5.111621e-5)" />
      <path
         style="fill:#000000;stroke:none"
         id="head"
         d="m 290.70015,180.84997 c 10.256,-0.007 18.563,-8.325 18.556,-18.58 0,-0.008 0,-0.017 0,-0.025 -0.007,-10.254 -8.325,-18.562 -18.58,-18.555 -10.254,0.007 -18.562,8.326 -18.556,18.58 0,0.008 0,0.017 0,0.025 0.008,10.255 8.326,18.562 18.58,18.555 z"
         inkscape:connector-curvature="0" />
    </g>
  </g>
</svg>
